<?xml version="1.0" standalone="no"?>
<!DOCTYPE svg PUBLIC "-//W3C//DTD SVG 20010904//EN"
 "http://www.w3.org/TR/2001/REC-SVG-20010904/DTD/svg10.dtd">
<svg version="1.0" xmlns="http://www.w3.org/2000/svg"
 width="1155.000000pt" height="1155.000000pt" viewBox="0 0 1155.000000 1155.000000"
 preserveAspectRatio="xMidYMid meet">
<metadata>
Created by potrace 1.11, written by Peter Selinger 2001-2013
</metadata>
<g transform="translate(0.000000,1155.000000) scale(0.100000,-0.100000)"
fill="#000000" stroke="none">
<path d="M6681 10307 c-16 -41 -42 -107 -57 -148 -14 -41 -34 -92 -44 -114
-10 -22 -25 -62 -34 -90 -9 -27 -34 -95 -56 -150 -21 -55 -61 -158 -89 -230
-27 -71 -67 -177 -89 -235 -23 -58 -61 -158 -86 -223 -25 -66 -46 -123 -46
-127 0 -5 24 -13 53 -19 28 -5 89 -17 134 -26 131 -25 418 -111 548 -163 139
-57 371 -168 380 -183 6 -9 -7 -62 -25 -104 -15 -33 -169 -423 -235 -595 -20
-52 -54 -138 -75 -190 -22 -52 -48 -120 -58 -150 -17 -48 -56 -146 -98 -245
-14 -34 -179 -455 -196 -500 -6 -16 -21 -52 -33 -80 -12 -27 -25 -61 -29 -75
-4 -14 -11 -34 -16 -45 -45 -109 -79 -194 -85 -215 -3 -14 -16 -45 -27 -70
-22 -48 -216 -540 -308 -780 -18 -47 -38 -98 -45 -115 -7 -16 -29 -73 -49
-125 -21 -52 -54 -138 -76 -190 -21 -52 -59 -147 -83 -210 -252 -646 -231
-601 -298 -646 -32 -21 -59 -42 -59 -46 0 -5 -5 -8 -11 -8 -9 0 -128 -76 -139
-89 -3 -4 -45 -33 -95 -65 -49 -33 -91 -63 -93 -68 -2 -4 -8 -8 -14 -8 -10 0
-195 -125 -213 -144 -6 -6 -29 -21 -52 -33 l-42 -23 -803 0 -804 0 -86 113
c-166 216 -305 453 -388 661 -16 41 -38 94 -48 118 -34 75 -121 378 -129 448
-2 19 -11 82 -21 140 -24 154 -23 581 1 745 74 483 270 953 560 1343 75 101
106 137 212 251 74 80 237 241 243 241 2 0 39 28 81 63 96 80 289 214 378 263
37 20 75 42 83 49 28 21 260 126 393 177 73 28 182 63 242 79 61 17 119 33
130 38 50 22 214 47 458 71 130 13 640 10 654 -3 5 -6 -26 -100 -62 -182 -13
-31 -115 -289 -187 -475 -23 -58 -47 -118 -54 -135 -7 -16 -22 -55 -33 -85
-12 -30 -26 -64 -30 -75 -15 -32 -202 -507 -213 -540 -6 -16 -19 -50 -31 -75
-11 -25 -34 -83 -52 -130 -30 -79 -71 -184 -100 -255 -7 -16 -27 -68 -45 -115
-43 -114 -89 -228 -106 -265 -7 -16 -43 -106 -80 -200 -36 -93 -100 -255 -141
-360 -41 -104 -95 -242 -120 -305 -24 -63 -67 -169 -94 -235 -26 -66 -80 -200
-118 -298 l-70 -178 77 -304 c61 -245 81 -310 102 -334 60 -71 169 -68 224 6
36 49 32 89 -35 353 l-64 251 19 52 c24 69 64 172 87 224 11 23 19 46 19 51 0
5 18 50 40 101 22 50 40 101 40 111 0 10 4 21 8 24 5 3 26 49 47 103 21 54 44
112 50 128 7 17 29 73 49 125 21 52 56 142 80 200 24 58 64 161 91 230 59 155
56 147 99 251 20 47 36 90 36 95 0 4 20 56 45 114 38 91 90 221 167 420 11 30
29 73 38 95 26 59 109 273 127 325 8 25 28 73 44 108 16 34 29 64 29 67 0 3
47 126 106 273 58 147 124 314 146 372 45 114 51 128 97 239 17 40 31 79 31
87 0 8 5 22 10 32 17 29 80 183 80 195 0 7 11 35 24 64 l25 52 -37 11 c-20 5
-51 10 -68 10 -16 0 -34 4 -40 10 -5 5 -30 14 -54 19 -25 5 -63 14 -85 20
-217 55 -1048 29 -1200 -39 -11 -5 -45 -13 -75 -18 -131 -24 -291 -73 -510
-158 -93 -36 -430 -205 -430 -215 0 -5 -5 -9 -11 -9 -16 0 -149 -83 -149 -92
0 -5 -4 -8 -9 -8 -25 0 -301 -208 -344 -259 -14 -17 -30 -31 -35 -31 -13 0
-312 -298 -312 -311 0 -3 -16 -23 -35 -43 -19 -20 -51 -60 -70 -89 -20 -29
-52 -72 -71 -97 -67 -89 -93 -126 -100 -145 -5 -11 -16 -28 -25 -38 -9 -10
-33 -50 -53 -90 -21 -39 -41 -76 -46 -82 -12 -15 -114 -222 -138 -280 -87
-216 -105 -267 -163 -493 -28 -107 -36 -151 -60 -332 -45 -345 -38 -588 32
-995 27 -159 118 -442 207 -640 41 -94 144 -295 176 -345 86 -134 142 -218
159 -237 l20 -23 -260 0 c-143 0 -558 -3 -923 -7 l-663 -6 -42 -39 c-63 -58
-68 -135 -13 -194 53 -57 -10 -54 1107 -54 l1030 0 103 -103 c122 -122 233
-221 253 -225 8 -2 15 -7 15 -11 0 -24 324 -254 500 -356 313 -180 636 -316
918 -385 70 -17 152 -37 182 -45 54 -14 123 -25 290 -46 125 -16 673 -17 795
-1 136 18 266 41 290 52 11 5 36 11 55 13 67 8 288 68 425 117 131 45 375 150
375 161 0 5 8 9 18 9 9 0 40 14 67 30 28 16 62 34 78 41 15 6 27 15 27 19 0 4
10 10 23 14 55 14 392 247 496 345 24 22 48 41 53 41 7 0 269 258 316 311 38
44 167 205 197 246 62 87 165 243 165 250 0 3 6 14 14 22 23 26 151 278 202
396 84 198 161 452 229 761 2 11 14 102 25 202 22 199 27 625 9 757 -5 39 -13
108 -18 155 -12 111 -27 189 -76 395 -27 113 -111 372 -127 390 -4 5 -8 15 -8
22 0 7 -13 42 -30 78 -16 36 -30 68 -30 71 0 15 -115 238 -183 354 -87 149
-140 228 -265 391 -90 116 -307 359 -322 359 -5 0 -30 23 -56 50 -26 28 -50
50 -54 50 -5 0 -37 27 -72 59 -72 67 -176 149 -260 205 -32 21 -58 41 -58 45
0 4 17 50 38 102 37 90 103 258 179 454 19 50 52 133 73 185 22 52 45 113 53
135 8 22 31 82 52 133 23 55 35 96 29 101 -5 4 -126 54 -269 110 -143 56 -275
109 -293 117 -18 8 -41 14 -52 14 -10 0 -20 4 -22 10 -3 10 -177 79 -220 87
-16 3 -28 9 -28 13 0 4 -8 10 -17 13 -20 6 -157 60 -346 136 -70 28 -129 51
-131 51 -2 0 -18 -33 -35 -73z m264 -327 c6 -5 60 -27 120 -50 61 -23 118 -45
128 -51 29 -16 221 -89 234 -89 6 0 27 -9 46 -20 18 -11 58 -28 88 -39 30 -10
79 -30 111 -44 l56 -25 -69 -179 c-38 -98 -74 -187 -79 -198 -24 -52 -140
-354 -140 -366 0 -8 -7 -22 -14 -32 -13 -17 -15 -17 -52 0 -22 10 -41 21 -44
25 -11 15 -269 126 -405 176 -140 51 -310 102 -339 102 -22 0 -20 7 14 93 17
42 30 81 30 88 0 6 13 40 29 73 16 34 41 96 55 138 15 42 44 120 66 174 22 53
40 103 40 110 0 8 9 33 19 56 11 24 22 51 25 61 5 15 12 17 38 12 18 -4 38
-11 43 -15z m680 -1589 c28 -19 84 -64 126 -98 42 -35 79 -63 82 -63 6 0 275
-270 329 -332 25 -29 69 -82 97 -118 28 -36 64 -81 79 -100 23 -29 182 -276
211 -330 139 -252 293 -666 341 -920 5 -25 16 -76 24 -115 9 -38 23 -178 32
-310 13 -199 14 -274 5 -435 -6 -107 -16 -222 -21 -255 -5 -33 -14 -94 -21
-135 -6 -41 -15 -84 -20 -95 -4 -11 -20 -69 -34 -130 -88 -373 -277 -771 -519
-1095 -56 -74 -108 -142 -116 -151 -117 -131 -257 -277 -266 -278 -6 -1 -32
-23 -58 -51 -26 -27 -50 -50 -54 -50 -4 0 -41 -28 -82 -61 -41 -33 -127 -95
-190 -137 -63 -42 -117 -78 -120 -81 -3 -4 -39 -23 -80 -45 -41 -21 -80 -45
-86 -52 -6 -8 -16 -14 -21 -14 -14 0 -187 -80 -193 -90 -3 -4 -16 -10 -30 -13
-14 -3 -79 -26 -145 -51 -238 -91 -469 -148 -735 -182 -185 -24 -227 -26 -435
-21 -302 7 -476 28 -695 83 -189 48 -233 62 -411 130 -64 24 -121 44 -127 44
-6 0 -12 4 -14 9 -3 10 -174 91 -191 91 -5 0 -15 6 -21 14 -6 7 -45 31 -86 52
-41 21 -79 42 -85 47 -5 4 -34 23 -62 40 -93 57 -281 188 -304 213 -12 13 -26
24 -30 24 -4 0 -20 12 -36 28 -15 15 -52 47 -81 72 l-54 45 44 7 c24 3 341 7
706 7 l663 1 25 25 c14 14 29 25 34 25 14 0 130 80 130 89 0 5 8 11 18 13 10
3 80 47 156 99 76 52 163 111 194 132 31 21 59 41 62 45 3 4 16 12 30 18 14 7
66 41 115 76 50 35 104 72 120 82 22 13 37 35 54 79 23 60 195 499 228 582 9
22 24 58 33 80 10 22 21 51 25 65 3 14 15 43 24 65 10 22 33 81 51 130 18 50
44 115 58 145 13 30 39 93 57 140 18 47 51 132 73 190 22 58 55 143 74 190 19
47 56 141 83 210 26 69 51 134 56 145 15 39 76 191 108 270 18 44 63 161 102
260 131 336 160 410 200 503 21 51 39 99 39 107 0 7 6 26 14 42 23 44 47 101
76 182 16 42 81 209 145 371 65 162 128 322 140 355 12 33 36 93 54 134 17 40
31 80 31 88 0 16 5 14 75 -36z"/>
</g>
</svg>
